<?xml version="1.0" encoding="UTF-8" standalone="no"?>
<svg
   width="27px"
   height="32px"
   viewBox="0 0 27 32"
   version="1.1"
   id="svg3"
   sodipodi:docname="ic-logo.svg"
   inkscape:version="1.3 (0e150ed, 2023-07-21)"
   xmlns:inkscape="http://www.inkscape.org/namespaces/inkscape"
   xmlns:sodipodi="http://sodipodi.sourceforge.net/DTD/sodipodi-0.dtd"
   xmlns="http://www.w3.org/2000/svg"
   xmlns:svg="http://www.w3.org/2000/svg">
  <sodipodi:namedview
     id="namedview3"
     pagecolor="#ffffff"
     bordercolor="#000000"
     borderopacity="0.25"
     inkscape:showpageshadow="2"
     inkscape:pageopacity="0.0"
     inkscape:pagecheckerboard="0"
     inkscape:deskcolor="#d1d1d1"
     inkscape:zoom="7.375"
     inkscape:cx="13.559322"
     inkscape:cy="15.932203"
     inkscape:window-width="1280"
     inkscape:window-height="800"
     inkscape:window-x="0"
     inkscape:window-y="32"
     inkscape:window-maximized="0"
     inkscape:current-layer="svg3" />
  <!-- Generator: Sketch 41.2 (35397) - http://www.bohemiancoding.com/sketch -->
  <title
     id="title1">ic_home</title>
  <desc
     id="desc1">Created with Sketch.</desc>
  <defs
     id="defs2">
    <filter
       x="-0.25505752"
       y="-0.2"
       width="1.510115"
       height="1.4833333"
       filterUnits="objectBoundingBox"
       id="filter-1">
      <feOffset
         dx="0"
         dy="2"
         in="SourceAlpha"
         result="shadowOffsetOuter1"
         id="feOffset1" />
      <feGaussianBlur
         stdDeviation="2"
         in="shadowOffsetOuter1"
         result="shadowBlurOuter1"
         id="feGaussianBlur1" />
      <feColorMatrix
         values="0 0 0 0 0   0 0 0 0 0   0 0 0 0 0  0 0 0 0.05 0"
         type="matrix"
         in="shadowBlurOuter1"
         result="shadowMatrixOuter1"
         id="feColorMatrix1" />
      <feMerge
         id="feMerge2">
        <feMergeNode
           in="shadowMatrixOuter1"
           id="feMergeNode1" />
        <feMergeNode
           in="SourceGraphic"
           id="feMergeNode2" />
      </feMerge>
    </filter>
  </defs>
  <g
     id="OPt-2"
     stroke="none"
     stroke-width="1"
     fill="none"
     fill-rule="evenodd">
    <g
       id="prog2_pro3_Mobile-Portrait_opt2-Copy-2"
       transform="translate(-10.000000, -15.000000)"
       fill="#000000">
      <g
         id="nav">
        <g
           id="Group-6"
           filter="url(#filter-1)">
          <g
             id="ic_home"
             transform="translate(14.000000, 17.000000)">
            <g
               id="Group"
               transform="translate(9.600000, 12.000000) scale(-1, 1) translate(-9.600000, -12.000000) ">
              <path
                 d="M1.54193617,6.86168315 L2.43571158,7.55392864 L3.87545433,8.66895245 C4.06923009,7.69976605 4.63021858,6.86662549 5.40616036,6.32487541 L2.63452498,4.17832899 L3.49284767,3.03923189 C3.84364061,2.57346219 3.7557555,1.90734739 3.29636647,1.55149336 L1.20691034,4.32284141 C0.897541374,4.73336947 0.789504631,5.23491875 0.863954814,5.70775912 C0.933553447,6.15035349 1.16287475,6.56807048 1.54193617,6.86168315 L1.54193617,6.86168315 Z"
                 id="Shape" />
              <path
                 d="M10.3270551,16.5512797 C7.23569404,14.9307587 4.48281066,14.4725332 3.78840902,15.5854991 C3.21809117,16.4994446 4.18836906,18.2327433 6.08768798,20.0078511 L4.28474375,22.9401937 L3.05678229,22.9401937 C2.4919686,22.955896 2.03855029,23.4237467 2.03855029,24 L3.63316466,24 L5.74725123,24 L6.39882979,22.9401937 L7.44365066,21.2407593 L7.85200696,20.5769145 C7.70795865,20.3377869 7.62427192,20.0574178 7.62427192,19.7568054 C7.62427192,18.8860169 8.32053925,18.1799601 9.1796089,18.1799601 C9.22728255,18.1799601 9.27383748,18.1845256 9.32039243,18.1886637 L10.3270551,16.5512797 L10.3270551,16.5512797 Z"
                 id="path2" />
              <path
                 d="M18.9736295,6.45285797 C18.8122278,5.66512147 18.1240763,5.07295379 17.2991546,5.07295379 C17.0636759,5.07295379 16.8393923,5.12138467 16.6354479,5.20850371 C16.0205326,5.47139789 15.5886665,6.08801776 15.5886665,6.80719856 L15.5886665,15.031192 C15.5886665,15.6170929 15.1201352,16.0924154 14.5418852,16.0924154 C14.1209352,16.0924154 13.7588539,15.8397624 13.5926925,15.4764587 C13.5779518,15.4442027 13.5647039,15.4108826 13.5531357,15.3770193 L12.5811787,12.9346842 L14.4678082,6.48085683 C14.4691145,6.47671864 14.4708884,6.47236733 14.4721947,6.46799264 C14.4951446,6.39572448 14.5152972,6.32345629 14.5349823,6.25099893 C15.2221064,3.72208965 13.9855616,1.08212917 11.6734091,0 L7.22972328,1.5664388 C6.68422148,1.75533853 6.39257914,2.35564117 6.57609195,2.90900269 L7.70142807,2.50102869 C8.14626298,2.33972627 8.63569336,2.57459741 8.79476236,3.02542165 C8.95383236,3.47624563 8.72217834,3.97266285 8.27743675,4.13387096 L7.11636848,4.55478059 C7.31910086,5.09868267 7.91638185,5.37678224 8.4559119,5.17598776 L9.68210049,4.71937003 C9.76914532,5.21959483 9.49187047,5.72535299 9.00421193,5.90195568 L6.65520655,6.76860507 C5.66421767,7.19805147 4.96132545,8.17575179 4.91262541,9.32522992 C4.91085254,9.36741741 4.907961,9.40941672 4.907961,9.45200605 C4.907961,9.47809045 4.91057264,9.503654 4.9113191,9.52957157 C4.90665468,9.51763005 4.9036688,9.50970768 4.9036688,9.50970768 L1.2371383,9.50970768 L1.2371383,8.07624109 C1.2371383,7.67564499 0.748547691,7.32726344 0.438898271,7.14659379 L0.190357927,7.01492213 L0.190357927,10.5278687 C0.203605979,11.5167308 0.997181326,12.3144227 1.97566885,12.3144227 L6.11129198,12.3144227 C6.47757115,12.3144227 6.83358838,12.3585969 7.17467825,12.4414836 C7.15801415,12.4373922 7.14160488,12.4312907 7.12502205,12.4264669 C7.14288813,12.4317872 7.16077729,12.437085 7.17897045,12.4414836 C7.18960562,12.4441081 7.20033511,12.4469463 7.21106457,12.4496888 C9.05421825,12.9121481 10.454031,14.5142711 10.6404363,16.4765768 C10.6436088,16.5108195 10.6456606,16.5454163 10.6481799,16.5800375 C10.6564834,16.6937358 10.6619876,16.8080018 10.6619876,16.9237834 C10.6619876,18.0284241 10.2784484,19.0420695 9.63937115,19.8360962 C9.59253628,19.8943421 9.5443018,19.9514974 9.49476199,20.0072836 C9.36424139,20.1958985 9.28689866,20.4251893 9.28689866,20.6732097 C9.28689866,21.3151083 9.80030631,21.835553 10.4335061,21.835553 C10.6613345,21.835553 10.87349,21.7682027 11.0518718,21.6522563 L13.3733552,20.2630839 C13.6936403,20.4447001 13.9102726,20.7912598 13.9102726,21.1897034 C13.9102726,21.4530233 13.8156698,21.6942322 13.6589335,21.8796326 L12.6955589,22.9401937 L11.5204041,22.9401937 L11.5198443,22.9401937 L11.4629331,22.9401937 C10.8983061,22.955896 10.4448878,23.4237467 10.4448878,24 L12.5380762,24 L12.5384495,24 L13.8022354,24 C13.8022354,22.9995972 14.6020622,22.1887573 15.5886665,22.1887573 L15.5886665,19.0992025 C14.7699955,18.9338562 14.1528427,18.2019287 14.1528427,17.3233378 C14.1528427,17.2792826 14.1548935,17.235557 14.1579737,17.1920695 C14.2626519,17.2079366 14.3686363,17.2189087 14.4776989,17.2189087 C14.8846546,17.2189087 15.2638103,17.1025614 15.5886665,16.9039429 C16.2152424,16.5210103 16.6354479,15.8267314 16.6354479,15.031192 L16.6354479,6.80719859 C16.6354479,6.42400717 16.941831,6.11348621 17.3196784,6.11348621 C17.6841857,6.11348621 17.9813343,6.40272419 18.0018602,6.76730448 C17.531834,7.09352773 17.2232114,7.64114277 17.2232114,8.26230264 C17.2232114,9.26260984 18.0229439,10.0734507 19.0096426,10.0734507 L19.0096426,6.80719859 C19.0096425,6.68574269 18.9971412,6.56740824 18.9736295,6.45285797 L18.9736295,6.45285797 Z"
                 id="path3" />
            </g>
          </g>
        </g>
      </g>
    </g>
  </g>
  <path
     style="fill:#030140;stroke:#ffffff;stroke-width:0.135593;fill-opacity:1"
     d="m 9.4237288,25.681938 c 0,-0.63672 -0.6171971,-1.257164 -1.5254237,-1.533447 -0.2071008,-0.063 -0.2369149,-0.258162 -0.2343536,-1.534067 l 0.00293,-1.461882 0.4294668,-0.203389 C 8.6121409,20.704883 8.9840732,20.219795 9.0966462,19.644534 9.1781877,19.227847 9.169523,19.219779 8.5389696,19.125222 7.7053424,19.000212 6.8880609,18.270978 6.7080201,17.491525 6.6391165,17.19322 6.5812852,15.024068 6.579506,12.671186 6.5771296,9.5284042 6.5330946,8.3500438 6.4135593,8.2305085 6.129941,7.9468902 5.5178721,8.0371277 5.28184,8.3973582 5.0797056,8.7058542 5.0841855,8.7452024 5.3519255,9.0129425 5.9445292,9.6055462 6.0558828,10.451766 5.632608,11.145959 5.3867125,11.549242 4.7432802,12 4.4135132,12 4.321246,12 4.2711864,11.363221 4.2711864,10.189543 c 0,-1.6602127 0.025685,-1.8486904 0.309505,-2.271186 C 4.7786236,7.6237146 5.0943211,7.3865109 5.4564424,7.2603493 5.965664,7.0829384 6.071139,7.0861759 6.5037977,7.2924964 6.7684079,7.4186801 7.1062952,7.7210145 7.2546584,7.9643505 7.5095646,8.3824312 7.524438,8.6538904 7.5249169,12.896968 c 4.895e-4,4.336888 0.010101,4.502387 0.2815346,4.847458 0.2183716,0.277615 0.399758,0.357269 0.8135593,0.357269 0.7199977,0 0.934577,-0.250342 1.5522572,-1.810959 L 10.690574,14.981197 10.258677,13.4567 C 10.021133,12.618227 9.5482397,10.986441 9.2078018,9.8305085 8.6425283,7.911163 8.5933189,7.6288155 8.6406319,6.5762712 8.7208258,4.7922389 9.4413669,3.4758904 10.879218,2.4866226 l 0.599866,-0.412718 2.259947,0.7868825 c 2.286622,0.7961699 2.871138,1.1372585 2.871138,1.6754224 0,0.331301 0.02049,0.3287289 -0.589255,0.07396 -0.267729,-0.1118644 -0.641282,-0.2033898 -0.830118,-0.2033898 -0.737597,0 -1.182431,1.0475141 -0.648423,1.5269328 0.130508,0.1171672 0.499151,0.3173168 0.819206,0.444777 0.556891,0.2217788 0.572024,0.2426786 0.351866,0.4859502 -0.277695,0.3068497 -0.798906,0.3250495 -1.455243,0.050814 -0.653764,-0.2731602 -0.766677,-0.257634 -0.766677,0.105423 0,0.5886111 0.36034,0.859138 1.852485,1.3907616 1.161052,0.413661 1.570998,0.6321963 2.009216,1.0710778 0.504407,0.5051711 0.884062,1.3164559 0.884062,1.8891479 0,0.194463 0.232138,0.221556 1.898305,0.221556 h 1.898305 v -0.869302 c 0,-0.8140207 0.02802,-0.8929691 0.440678,-1.2414415 l 0.440678,-0.3721383 0.04668,0.3939832 c 0.02567,0.2166907 0.02567,1.0984046 0,1.9593626 -0.05055,1.695319 -0.182205,2.070365 -0.889648,2.534428 -0.311062,0.204046 -0.803684,0.249432 -3.354043,0.309004 -2.783412,0.06501 -3.033683,0.09168 -3.631573,0.386908 -0.89533,0.442103 -1.702785,1.29247 -2.1693,2.284591 -0.333052,0.708287 -0.396049,1.01168 -0.394166,1.898305 0.0025,1.200688 0.219641,1.926903 0.849838,2.842862 0.494863,0.71926 0.555299,1.295713 0.174981,1.669031 -0.536395,0.526524 -0.847835,0.471796 -2.339147,-0.411049 -1.3439857,-0.79563 -1.4119149,-0.819943 -1.6610169,-0.594509 -0.1716636,0.155354 -0.2597235,0.415059 -0.2597235,0.765976 0,0.42515 0.112287,0.664094 0.5635982,1.199324 0.5576382,0.661327 0.5720412,0.668394 1.3620952,0.668394 0.666997,0 0.853308,0.05481 1.131317,0.33282 0.183051,0.183051 0.33282,0.396611 0.33282,0.474577 0,0.09074 -0.585605,0.141756 -1.627119,0.141756 -1.5614922,0 -1.6271182,-0.01146 -1.6271182,-0.284164 z"
     id="path4" />
  <path
     style="fill:#030140;fill-opacity:1;stroke:#ffffff;stroke-width:0.135593"
     d="m 16.502341,24.319661 c -0.930123,-1.539067 -0.983981,-1.671498 -0.902028,-2.218 0.150248,-1.001928 -0.540338,-1.966068 -1.40824,-1.966068 -0.175648,0 -0.419626,-0.264485 -0.739835,-0.802022 l -0.477762,-0.802021 1.377169,-0.571604 c 3.90606,-1.621238 5.977611,-0.974718 4.736525,1.478245 -0.203201,0.401621 -0.753429,1.144944 -1.222728,1.65183 l -0.85327,0.921611 0.917643,1.501188 0.917643,1.501189 0.785824,0.0015 c 0.652402,0.0012 0.842333,0.05798 1.118644,0.33429 0.183051,0.183051 0.33282,0.39661 0.33282,0.474576 0,0.09172 -0.634115,0.140055 -1.79661,0.136935 l -1.796611,-0.0048 z"
     id="path5" />
  <path
     style="fill:#030140;fill-opacity:1;stroke:#ffffff;stroke-width:0.135593"
     d=""
     id="path6" />
  <path
     style="fill:#030140;fill-opacity:1;stroke:#ffffff;stroke-width:0.135593"
     d="m 9.5588152,25.59322 c -9.7e-4,-0.454112 -0.5189437,-1.083356 -1.138786,-1.383417 l -0.623419,-0.301791 0.00522,-1.309939 0.00522,-1.309937 0.4241231,-0.271187 C 8.8191988,20.640967 9.1720579,20.120626 9.1982027,19.590938 9.2193554,19.162392 9.1906727,19.134762 8.5526578,18.969087 8.1231863,18.857567 7.7157978,18.626533 7.4107832,18.321517 6.7859656,17.6967 6.7341208,17.286232 6.7217631,12.866383 6.7097121,8.5562127 6.6611905,8.0942766 6.2085689,7.9806759 5.8097054,7.8805675 5.2862214,8.0981155 5.1032358,8.4400274 4.999689,8.6335063 5.05917,8.8237681 5.3660556,9.2807098 5.8098984,9.941576 5.8574668,10.338706 5.561368,10.911298 5.3411333,11.337185 4.631118,11.907954 4.493169,11.770005 4.4456549,11.722491 4.4070077,10.976836 4.4072865,10.112994 4.4078742,8.2919539 4.6033002,7.7916856 5.4527334,7.4367696 5.9008026,7.2495544 5.9943974,7.2498335 6.39228,7.4395704 7.3118362,7.8780762 7.3146119,7.8934542 7.3898305,12.96597 l 0.067797,4.572004 0.3287206,0.349657 c 0.3573772,0.380138 1.0263807,0.468494 1.5253513,0.201454 0.2837211,-0.151844 1.0395036,-1.65049 1.3342586,-2.645709 0.155693,-0.525688 0.109353,-0.748004 -0.833771,-4 C 8.8891578,8.260672 8.8142232,7.9075627 8.8223285,6.7789403 8.8297296,5.7483698 8.8889738,5.4310751 9.2020913,4.745042 9.5875601,3.9004881 10.401729,2.9560839 11.140376,2.4967071 l 0.428512,-0.2664986 1.840195,0.6699786 c 2.106905,0.767083 2.975445,1.2069458 3.039451,1.5392978 0.04126,0.2142515 0.0072,0.2167657 -0.434816,0.032085 -0.263771,-0.1102107 -0.63686,-0.2003832 -0.829086,-0.2003832 -0.478392,0 -1.01514,0.5651714 -1.01514,1.0688973 0,0.4759521 0.274623,0.7834985 0.982705,1.1005163 0.458206,0.2051451 0.492123,0.2519161 0.298945,0.4122397 -0.181045,0.1502541 -0.325061,0.1505941 -0.85147,0.00201 -1.006347,-0.28405 -1.16997,-0.2626328 -1.218598,0.1595062 -0.06388,0.5545252 0.420841,0.9425028 1.887488,1.510782 0.709036,0.2747288 1.509038,0.6807524 1.777783,0.9022744 0.512792,0.4226871 1.05535,1.3764114 1.05535,1.8551274 0,0.154917 0.09652,0.318703 0.21448,0.36397 0.117963,0.04527 1.033218,0.0823 2.033898,0.0823 h 1.819419 v -0.857721 c 0,-0.751592 0.04399,-0.8983932 0.355553,-1.1864403 l 0.355553,-0.3287205 -0.06591,1.7627118 c -0.108954,2.913927 -0.0839,2.895592 -4.172195,3.053905 -3.397128,0.131549 -3.761491,0.227446 -4.796416,1.262371 -0.912552,0.912553 -1.33525,1.842261 -1.410877,3.103175 -0.07724,1.287773 0.114579,2.111613 0.723984,3.109462 0.52432,0.858528 0.586005,1.322203 0.219968,1.653461 -0.396713,0.35902 -0.813299,0.268307 -2.082918,-0.45356 C 9.9368884,22.07457 9.5407279,22.008235 9.3098983,22.51485 c -0.2561794,0.562254 -0.1824149,1.070884 0.2398419,1.653793 0.5538578,0.764579 0.9186888,0.983895 1.6366988,0.983895 0.59338,0 1.220339,0.282598 1.220339,0.550061 0,0.07202 -0.622028,0.127905 -1.423729,0.127905 -1.2653437,0 -1.4237854,-0.0264 -1.4242358,-0.237288 z"
     id="path7" />
</svg>
